<svg id="Capa_1" enable-background="new 0 0 512 512" height="512" viewBox="0 0 512 512" width="512" xmlns="http://www.w3.org/2000/svg"><g><path d="m107 272c0 38.66 31.34 70 70 70h158c38.66 0 70-31.34 70-70v-161h-298z" fill="#d8ecfe"/><path d="m346.806 224c-9.29 28.768-33.664 50.741-63.806 56.602v24.389h59.096c15.347-10.653 25.404-28.393 25.404-48.491 0-12.224-3.718-23.579-10.083-32.997-1.758.321-3.566.497-5.417.497z" fill="#bb5d4c"/><g fill="#bb5d4c"><g><path d="m348.641 111c1.444 3.513 2.245 7.358 2.245 11.392v30.444h1.114c11.876 0 22.139 6.902 27 16.912v-58.748z"/><path d="m133 169.748c4.861-10.01 15.124-16.912 27-16.912h1.114v-.527c0-5.701 3.232-10.91 8.341-13.441l56.246-27.868h-92.701z"/></g><path d="m369.634 66c-16.054-34.545-51.054-58.5-91.656-58.5h-43.957c-40.601 0-75.602 23.955-91.655 58.5z"/></g><g fill="#a44f3e"><path d="m182.833 65c16.26-34.007 50.979-57.5 91.188-57.5h-40c-40.209 0-74.928 23.493-91.188 57.5z"/><path d="m160 152.835h1.114v-.527c0-5.701 3.232-10.91 8.341-13.441l3.546-1.757v-26.11h-40v58.748c4.86-10.011 15.123-16.913 26.999-16.913z"/></g><g><path d="m424 504.5h-336c-5.523 0-10-4.477-10-10v-139.509c0-27.614 22.386-50 50-50h256c27.614 0 50 22.386 50 50v139.509c0 5.523-4.477 10-10 10z" fill="#26a6fe"/></g><g><path d="m118 494.5v-139.509c0-27.614 22.386-50 50-50h-40c-27.614 0-50 22.386-50 50v139.509c0 5.523 4.477 10 10 10h40c-5.523 0-10-4.477-10-10z" fill="#0593fc"/></g><path d="m283 280.602c-5.217 1.014-10.6 1.562-16.114 1.562h-21.772c-5.514 0-10.897-.548-16.114-1.562v24.389h-25l47.671 82.515c1.925 3.332 6.734 3.332 8.659 0l47.67-82.515h-25z" fill="#ffbd86"/><g><g><path d="m224.999 304.991h-21l47.671 82.515c1.925 3.332 6.734 3.332 8.659 0l6.171-10.681z" fill="#f6a96c"/></g></g><g fill="#ffbd86"><path d="m161.114 198.164v-45.329h-1.114c-16.569 0-30 13.431-30 30v11.165c0 16.569 13.431 30 30 30h5.18c-2.629-8.142-4.066-16.819-4.066-25.836z"/><path d="m352 152.835h-1.114v45.329c0 9.017-1.437 17.695-4.066 25.836h5.18c16.569 0 30-13.431 30-30v-11.165c0-16.568-13.431-30-30-30z"/></g><path d="m225.701 111-56.246 27.868c-5.109 2.531-8.341 7.739-8.341 13.441v45.856c0 46.392 37.608 84 84 84h21.772c46.392 0 84-37.608 84-84v-75.772c0-4.034-.801-7.878-2.245-11.392h-122.94z" fill="#fed2a4"/><path d="m192.228 208.772v-45.856c0-5.701 3.232-10.91 8.341-13.441l77.657-38.475h-52.525l-56.246 27.868c-5.109 2.531-8.341 7.739-8.341 13.441v45.856c0 42.647 31.79 77.846 72.961 83.255-25.016-14.549-41.847-41.624-41.847-72.648z" fill="#ffbd86"/><g><g><path d="m187 408.5h-16.5c-1.657 0-3-1.343-3-3v-16.5c0-1.657-1.343-3-3-3h-19c-1.657 0-3 1.343-3 3v16.5c0 1.657-1.343 3-3 3h-16.5c-1.657 0-3 1.343-3 3v19c0 1.657 1.343 3 3 3h16.5c1.657 0 3 1.343 3 3v16.5c0 1.657 1.343 3 3 3h19c1.657 0 3-1.343 3-3v-16.5c0-1.657 1.343-3 3-3h16.5c1.657 0 3-1.343 3-3v-19c0-1.657-1.343-3-3-3z" fill="#fff"/></g><g><path d="m389 461h-86c-1.657 0-3-1.343-3-3v-54c0-1.657 1.343-3 3-3h86c1.657 0 3 1.343 3 3v54c0 1.657-1.343 3-3 3z" fill="#fff"/></g><g><path d="m330 458v-54c0-1.657 1.343-3 3-3h-30c-1.657 0-3 1.343-3 3v54c0 1.657 1.343 3 3 3h30c-1.657 0-3-1.343-3-3z" fill="#f3f0f3"/></g></g><g><path d="m380 65h-248c-13.807 0-25 11.193-25 25v21h298v-21c0-13.807-11.193-25-25-25z" fill="#05e39c"/></g><g><path d="m182 65h-50c-13.807 0-25 11.193-25 25v21h50v-21c0-13.807 11.193-25 25-25z" fill="#0ed290"/></g><g><path d="m349.454 213.557h-29.114c-5.958 0-11.734-2.11-16.243-6.006-11.81-10.203-28.977-16.629-48.097-16.629s-36.287 6.426-48.097 16.629c-4.509 3.895-10.284 6.005-16.242 6.005h-29.114c7.233 39.036 41.436 68.607 82.568 68.607h21.772c41.131.001 75.333-29.57 82.567-68.606z" fill="#05e39c"/></g><g><path d="m192.371 213.525c-.237.007-.473.031-.711.031h-29.134c6.574 35.481 35.454 63.121 71.549 67.862-23.729-13.798-40.083-38.872-41.704-67.893z" fill="#0ed290"/></g><g><path d="m208 180.592c4.143 0 7.5-3.357 7.5-7.5v-18.092c0-4.143-3.357-7.5-7.5-7.5s-7.5 3.357-7.5 7.5v18.092c0 4.142 3.357 7.5 7.5 7.5z"/><path d="m304 180.592c4.143 0 7.5-3.357 7.5-7.5v-18.092c0-4.143-3.357-7.5-7.5-7.5s-7.5 3.357-7.5 7.5v18.092c0 4.142 3.357 7.5 7.5 7.5z"/><path d="m145.5 463.5h19c5.79 0 10.5-4.71 10.5-10.5v-12h12c5.79 0 10.5-4.71 10.5-10.5v-19c0-5.79-4.71-10.5-10.5-10.5h-12v-12c0-5.79-4.71-10.5-10.5-10.5h-19c-5.79 0-10.5 4.71-10.5 10.5v12h-12c-5.79 0-10.5 4.71-10.5 10.5v19c0 5.79 4.71 10.5 10.5 10.5h12v12c0 5.79 4.71 10.5 10.5 10.5zm-18-37.5v-10h12c5.79 0 10.5-4.71 10.5-10.5v-12h10v12c0 5.79 4.71 10.5 10.5 10.5h12v10h-12c-5.79 0-10.5 4.71-10.5 10.5v12h-10v-12c0-5.79-4.71-10.5-10.5-10.5z"/><path d="m292.5 404v54c0 5.79 4.71 10.5 10.5 10.5h86c5.79 0 10.5-4.71 10.5-10.5v-54c0-5.79-4.71-10.5-10.5-10.5h-86c-5.79 0-10.5 4.71-10.5 10.5zm15 4.5h77v45h-77z"/><path d="m361 385.5c4.143 0 7.5-3.357 7.5-7.5s-3.357-7.5-7.5-7.5h-30c-4.143 0-7.5 3.357-7.5 7.5s3.357 7.5 7.5 7.5z"/><path d="m434 435.5c4.143 0 7.5-3.357 7.5-7.5v-73.009c0-23.751-14.475-44.182-35.066-52.941 3.904-9.246 6.066-19.4 6.066-30.05v-9c0-4.143-3.357-7.5-7.5-7.5s-7.5 3.357-7.5 7.5v9c0 9.289-2.052 18.102-5.702 26.034-2.552-.348-5.152-.543-7.798-.543h-23.195c8.883-11.302 14.195-25.534 14.195-40.991 0-10.313-2.376-20.074-6.587-28.791 12.474-6.097 21.087-18.915 21.087-33.709v-11.165c0-5.211-1.071-10.176-3-14.69v-49.645h11v109.5c0 4.143 3.357 7.5 7.5 7.5s7.5-3.357 7.5-7.5v-138c0-17.921-14.579-32.5-32.5-32.5h-6.277c-18.29-34.185-54.34-57.5-95.744-57.5h-43.957c-41.405 0-77.455 23.315-95.744 57.5h-6.278c-17.921 0-32.5 14.579-32.5 32.5v182c0 10.65 2.161 20.805 6.066 30.05-20.591 8.759-35.066 29.19-35.066 52.941v139.509c0 9.649 7.851 17.5 17.5 17.5h336c9.649 0 17.5-7.851 17.5-17.5v-31.5c0-4.143-3.357-7.5-7.5-7.5s-7.5 3.357-7.5 7.5v31.5c0 1.379-1.121 2.5-2.5 2.5h-336c-1.379 0-2.5-1.121-2.5-2.5v-139.509c0-18.068 11.339-33.529 27.27-39.667 13.944 20.605 37.532 34.176 64.23 34.176h44.052l24.125 41.758c2.26 3.911 6.306 6.247 10.823 6.247s8.563-2.336 10.823-6.247l24.125-41.758h44.052c26.698 0 50.286-13.571 64.23-34.176 15.931 6.138 27.27 21.599 27.27 39.667v73.009c0 4.143 3.357 7.5 7.5 7.5zm-59.5-241.5c0 10.818-7.676 19.876-17.867 22.018 1.147-5.777 1.754-11.745 1.754-17.854v-36.9c9.304 2.76 16.113 11.383 16.113 21.571zm-219.133 22.018c-10.191-2.142-17.867-11.2-17.867-22.018v-11.165c0-10.188 6.809-18.811 16.113-21.571v36.9c0 6.109.607 12.077 1.754 17.854zm-.777-70.288c-5.098.74-9.869 2.505-14.09 5.086v-32.316h53.167l-27.543 13.646c-5.679 2.815-9.766 7.746-11.534 13.584zm14.023 6.579c0-2.871 1.598-5.446 4.171-6.721l54.672-27.088h115.58c.223 1.266.351 2.563.351 3.892v75.772c0 2.665-.139 5.297-.406 7.893h-22.641c-4.192 0-8.219-1.485-11.34-4.182-11.877-10.26-28.149-16.692-45.5-18.141v-15.734c0-4.143-3.357-7.5-7.5-7.5s-7.5 3.357-7.5 7.5v15.734c-17.351 1.449-33.623 7.881-45.5 18.141-3.121 2.696-7.148 4.181-11.34 4.181h-22.641c-.267-2.595-.406-5.228-.406-7.893zm23.047 68.748c7.79 0 15.3-2.78 21.146-7.829 10.891-9.409 26.635-14.806 43.194-14.806s32.303 5.396 43.193 14.804c5.845 5.05 13.354 7.831 21.146 7.831h19.545c-9.753 31.034-38.787 53.607-72.998 53.607h-21.773c-34.211 0-63.244-22.574-72.998-53.607zm98.84 65.505c28.19-7.538 51.063-28.223 61.6-55.065.462-.001.92-.021 1.378-.039 4.148 7.417 6.522 15.955 6.522 25.041 0 16.708-8 31.578-20.369 40.991h-31.631-17.5zm67.678-168.062h13.322v32.316c-3.951-2.415-8.383-4.111-13.113-4.926v-23.499c0-1.314-.075-2.611-.209-3.891zm-243.678-28.5c0-9.649 7.851-17.5 17.5-17.5h66c4.143 0 7.5-3.357 7.5-7.5s-3.357-7.5-7.5-7.5h-42.306c16.709-25.566 45.572-42.5 78.327-42.5h43.957c32.755 0 61.619 16.934 78.327 42.5h-123.305c-4.143 0-7.5 3.357-7.5 7.5s3.357 7.5 7.5 7.5h147c9.649 0 17.5 7.851 17.5 17.5v13.5h-283zm5.702 208.034c-3.65-7.932-5.702-16.745-5.702-26.034v-153.5h11v49.645c-1.929 4.514-3 9.479-3 14.69v11.165c0 20.644 16.768 37.443 37.4 37.497 10.536 26.842 33.41 47.527 61.6 55.065v10.929h-17.5-76c-2.646 0-5.246.195-7.798.543zm56.798 36.466c-19.025 0-36.081-8.555-47.553-22.009h70.224l12.715 22.009zm79 45.507-17.625-30.507h35.25zm26.291-45.507h-52.582l-12.715-22.009h12.006c4.143 0 7.5-3.357 7.5-7.5v-15.746c2.837.266 5.707.419 8.613.419h21.773c2.906 0 5.776-.152 8.613-.419v15.746c0 4.143 3.357 7.5 7.5 7.5h12.006zm52.709 0h-35.386l12.715-22.009h70.224c-11.472 13.454-28.528 22.009-47.553 22.009z"/><path d="m233.5 231.5h45c4.143 0 7.5-3.357 7.5-7.5s-3.357-7.5-7.5-7.5h-45c-4.143 0-7.5 3.357-7.5 7.5s3.357 7.5 7.5 7.5z"/><path d="m224 255.5h64c4.143 0 7.5-3.357 7.5-7.5s-3.357-7.5-7.5-7.5h-64c-4.143 0-7.5 3.357-7.5 7.5s3.357 7.5 7.5 7.5z"/></g></g></svg>