<svg height="512pt" viewBox="0 0 512 512" width="512pt" xmlns="http://www.w3.org/2000/svg" xmlns:xlink="http://www.w3.org/1999/xlink"><linearGradient id="a" gradientTransform="matrix(1 0 0 -1 0 -10886)" gradientUnits="userSpaceOnUse" x1="0" x2="512" y1="-11142" y2="-11142"><stop offset="0" stop-color="#00f38d"/><stop offset="1" stop-color="#009eff"/></linearGradient><path d="m512 256c0 141.386719-114.613281 256-256 256s-256-114.613281-256-256 114.613281-256 256-256 256 114.613281 256 256zm0 0" fill="url(#a)"/><path d="m265.121094 441h-138.417969l185.839844-184.660156-185.730469-185.339844h138.328125l153 154.371094c8.238281 8.242187 12.792969 19.257812 12.78125 30.972656s-4.589844 22.722656-12.886719 30.992188zm-65.664063-30h53.195313l144.160156-144.871094c2.660156-2.652344 4.105469-6.121094 4.109375-9.816406.003906-3.691406-1.433594-7.164062-4.042969-9.777344l-144.246094-145.535156h-53.285156l155.710938 155.382812zm0 0" fill="#fff"/></svg>