<svg xmlns="http://www.w3.org/2000/svg" data-name="Layer 1" viewBox="0 0 64 64"><polyline fill="#7c8799" points="54.81 48.24 44.59 26 33 21 33.44 34.06 49.85 51.82"/><path fill="#992630" d="M33,52l-1,0a20,20,0,0,1,0-40l1,0"/><rect width="2" height="3.62" x="31" y="8.44" fill="#424752"/><circle cx="32" cy="5.72" r="3" fill="#293b8a"/><rect width="2" height="3.62" x="31" y="51.94" fill="#424752"/><circle cx="32" cy="58.28" r="3" fill="#293b8a"/><rect width="3.62" height="2" x="8.44" y="31" fill="#424752"/><circle cx="5.72" cy="32" r="3" fill="#293b8a"/><rect width="2" height="3.62" x="15.62" y="14.81" fill="#424752" transform="rotate(-45.01 16.617 16.613)"/><circle cx="13.42" cy="13.42" r="3" fill="#293b8a"/><rect width="3.62" height="2" x="14.81" y="46.38" fill="#424752" transform="rotate(-45 16.623 47.374)"/><circle cx="13.42" cy="50.58" r="3" fill="#293b8a"/><path fill="#3e444d" d="M33,48c-.33,0-.66,0-1,0a16,16,0,0,1,0-32c.34,0,.67,0,1,0"/><polyline fill="#727c8c" points="55.24 48.89 59.96 55.98 59.63 61 55.01 59.56 50.28 52.47"/><rect width="21.39" height="2" x="41.63" y="49.03" fill="#3e444d" transform="rotate(-35.86 52.332 50.033)"/><rect width="6.11" height="2" x="50.99" y="51.61" fill="#3e444d" transform="rotate(-35.86 54.055 52.622)"/><rect width="6.11" height="2" x="52.71" y="54.19" fill="#3e444d" transform="rotate(-35.86 55.767 55.19)"/><rect width="2" height="11.63" x="48.11" y="39.38" fill="#3e444d" transform="rotate(-33.66 49.096 45.198)"/><rect width="2" height="2.32" x="43.38" y="36.93" fill="#3e444d" transform="rotate(-33.64 44.39 38.095)"/><rect width="2" height="2" x="44" y="19" fill="#293b8a"/><rect width="2" height="2" x="46" y="10" fill="#293b8a"/><rect width="2" height="2" x="55" y="18" fill="#293b8a"/><rect width="2" height="2" x="60" y="27" fill="#293b8a"/><rect width="2" height="2" x="37" y="49" fill="#293b8a"/><rect width="2" height="2" x="36" y="13" fill="#293b8a"/><rect width="2" height="2" x="53" y="3" fill="#293b8a"/><rect width="2" height="2" x="59" y="11" fill="#293b8a"/><rect width="2" height="2" x="55" y="38" fill="#293b8a"/></svg>